<svg width="20" height="20" viewBox="0 0 20 20" fill="none" xmlns="http://www.w3.org/2000/svg">
<g id="microphone-speaking" clip-path="url(#clip0_19_168)">
<path id="Vector" d="M4.16665 2.50008V4.16675M0.833313 1.66675V5.00008M15.8333 2.50008V4.16675M19.1666 1.66675V5.00008M4.16665 8.33342V9.16675C4.16665 12.3884 6.77832 15.0001 9.99998 15.0001M15.8333 8.33342V9.16675C15.8333 12.3884 13.2216 15.0001 9.99998 15.0001M9.99998 15.0001V18.3334M9.99998 18.3334H7.49998M9.99998 18.3334H12.5M9.99998 11.6667C8.61927 11.6667 7.49998 10.5475 7.49998 9.16675V4.16675C7.49998 2.78604 8.61927 1.66675 9.99998 1.66675C11.3807 1.66675 12.5 2.78604 12.5 4.16675V9.16675C12.5 10.5475 11.3807 11.6667 9.99998 11.6667Z" stroke="white" stroke-width="1.5" stroke-linecap="round" stroke-linejoin="round"/>
</g>
<defs>
<clipPath id="clip0_19_168">
<rect width="20" height="20" fill="white"/>
</clipPath>
</defs>
</svg>
