<svg width="20" height="20" viewBox="0 0 20 20" fill="none" xmlns="http://www.w3.org/2000/svg">
<g id="multi-bubble" clip-path="url(#clip0_19_160)">
<path id="Vector" d="M12.7354 14.9149C13.5489 14.7838 14.3132 14.5055 15 14.1082L18 14.6667L17.4415 11.6667C18.0087 10.6862 18.3334 9.54771 18.3334 8.33342C18.3334 4.65152 15.3486 1.66675 11.6667 1.66675C8.31054 1.66675 5.53362 4.14673 5.06853 7.37412M10.8334 13.7501C10.8334 16.2814 8.78133 18.3334 6.25002 18.3334C5.4152 18.3334 4.6325 18.1102 3.95835 17.7202L1.89585 18.1042L2.27986 16.0417C1.88988 15.3676 1.66669 14.5849 1.66669 13.7501C1.66669 11.2188 3.71872 9.16675 6.25002 9.16675C8.78133 9.16675 10.8334 11.2188 10.8334 13.7501Z" stroke="white" stroke-width="1.5" stroke-linecap="round" stroke-linejoin="round"/>
</g>
<defs>
<clipPath id="clip0_19_160">
<rect width="20" height="20" fill="white"/>
</clipPath>
</defs>
</svg>
